<svg width="147" height="149" viewBox="0 0 147 149" fill="none" xmlns="http://www.w3.org/2000/svg">
<circle cx="73.0588" cy="73.0588" r="73.0588" fill="#8369AB"/>
<mask id="mask0_102_3" style="mask-type:alpha" maskUnits="userSpaceOnUse" x="6" y="2" width="139" height="147">
<ellipse cx="75.3261" cy="75.1947" rx="69.0588" ry="73.0588" fill="white"/>
</mask>
<g mask="url(#mask0_102_3)">
<path d="M28.5241 153.881L35.9808 120.658C65.373 107.73 97.5844 103.704 129.015 109.03C129.015 109.03 154.334 283.168 154.334 291.718C111.205 306.15 64.7362 304.774 22.438 287.812C17.1366 278.549 42.7834 254.38 28.5241 153.881Z" fill="#DF519B"/>
<mask id="mask1_102_3" style="mask-type:alpha" maskUnits="userSpaceOnUse" x="21" y="106" width="134" height="196">
<path fill-rule="evenodd" clip-rule="evenodd" d="M28.5241 153.881L35.9808 120.658C65.373 107.73 97.5844 103.704 129.015 109.03C129.015 109.03 154.334 283.168 154.334 291.718C111.205 306.15 64.7362 304.774 22.438 287.812C17.1366 278.549 42.7834 254.38 28.5241 153.881Z" fill="white"/>
</mask>
<g mask="url(#mask1_102_3)">
<ellipse cx="80.0279" cy="115.491" rx="30.928" ry="32.3794" fill="#F4BCB1"/>
<ellipse cx="80.0279" cy="109.71" rx="28.1342" ry="32.3794" fill="#F4BCB1"/>
</g>
<path d="M85.8108 108.748C112.046 111.594 124.828 102.342 124.828 102.342C102.629 86.6858 126.173 74.5873 112.045 60.354C97.9166 46.1207 109.811 24.3357 85.8094 20.8564L82.7823 30.8198C91.1914 57.8631 77.4007 87.2196 77.4007 87.2196L85.8108 108.748Z" fill="#50C2CF"/>
<path d="M56.6781 116.874L62.2664 73.5205L90.9403 78.68C91.4805 90.462 92.6032 102.206 94.304 113.864" fill="#F4BCB1"/>
<mask id="mask2_102_3" style="mask-type:alpha" maskUnits="userSpaceOnUse" x="56" y="73" width="39" height="44">
<path fill-rule="evenodd" clip-rule="evenodd" d="M56.6781 116.874L62.2664 73.5205L90.9403 78.68C91.4805 90.462 92.6032 102.206 94.304 113.864" fill="white"/>
</mask>
<g mask="url(#mask2_102_3)">
<path d="M57.0378 88.845C74.7113 111.95 90.0647 102.375 94.304 113.863C98.5433 125.351 94.304 78.6796 94.304 78.6796L81.4099 76.8464L59.451 85.0157" fill="#EA978C"/>
</g>
<path d="M96.4061 58.5738C108.683 50.5676 111.038 68.4481 94.304 78.6785Z" fill="#F4BCB1"/>
<path d="M82.7841 30.8193C82.7841 30.8193 59.2386 31.1755 68.6561 54.6606C75.414 71.5126 65.5495 83.4176 66.6428 96.1604C68.6248 97.368 70.947 97.7939 73.1976 97.3625C95.8163 93.7318 98.1726 73.558 97.4568 50.2054C82.9833 46.816 82.7841 30.8193 82.7841 30.8193Z" fill="#F4BCB1"/>
<mask id="mask3_102_3" style="mask-type:alpha" maskUnits="userSpaceOnUse" x="66" y="30" width="32" height="68">
<path fill-rule="evenodd" clip-rule="evenodd" d="M82.7841 30.8193C82.7841 30.8193 59.2386 31.1755 68.6561 54.6606C75.414 71.5126 65.5495 83.4176 66.6428 96.1604C68.6248 97.368 70.9471 97.7939 73.1976 97.3625C95.8163 93.7318 98.1726 73.558 97.4568 50.2054C82.9833 46.816 82.7841 30.8193 82.7841 30.8193Z" fill="white"/>
</mask>
<g mask="url(#mask3_102_3)">
<ellipse opacity="0.27" rx="8.10638" ry="6.52885" transform="matrix(0.998919 -0.0464892 0.041547 0.999137 94.2753 71.8063)" fill="#EA978C"/>
<rect width="5.7636" height="11.2453" rx="2.8818" transform="matrix(0.999566 0.0294526 -0.0263181 0.999654 61.2352 52.5046)" fill="#3D3D3C"/>
<rect width="5.7636" height="11.2453" rx="2.8818" transform="matrix(0.999566 0.0294416 -0.0263082 0.999654 83.4044 52.2041)" fill="#3D3D3C"/>
<path d="M63.5859 45.3862C57.6596 47.027 59.1893 50.4646 62.9574 49.6945C66.7255 48.9244 67.4577 44.3141 63.5859 45.3862Z" fill="#3D3D3C"/>
<path d="M86.3065 44.8626C92.1373 46.8498 90.8814 49.9447 87.1587 48.9542C83.436 47.9636 82.4968 43.5644 86.3065 44.8626Z" fill="#3D3D3C"/>
<path d="M78.2767 65.64C78.26 67.7012 76.5982 66.8688 74.5405 66.8504C72.4828 66.832 70.8079 67.6336 70.8246 65.5732C70.9512 63.4819 72.6001 61.8596 74.5809 61.8776C76.5616 61.8956 78.184 63.5475 78.2767 65.6408V65.64Z" fill="#EA978C"/>
<path d="M66.5487 77.1171C70.0608 91.7655 82.8995 84.6736 82.5792 75.4451C82.5552 74.9677 82.2518 74.5571 81.8197 74.4173C76.9482 73.0811 71.7907 73.5559 67.2106 75.7621C66.7022 75.9768 66.4202 76.5542 66.5487 77.1171V77.1171Z" fill="#EA978C"/>
<mask id="mask4_102_3" style="mask-type:alpha" maskUnits="userSpaceOnUse" x="66" y="73" width="17" height="13">
<path fill-rule="evenodd" clip-rule="evenodd" d="M66.5487 77.1171C70.0608 91.7655 82.8995 84.6736 82.5792 75.4451C82.5553 74.9677 82.2518 74.5571 81.8197 74.4173C76.9482 73.0811 71.7907 73.5559 67.2106 75.7621C66.7022 75.9768 66.4202 76.5542 66.5487 77.1171V77.1171Z" fill="white"/>
</mask>
<g mask="url(#mask4_102_3)">
<ellipse opacity="0.29" rx="7.22526" ry="6.70761" transform="matrix(0.913486 -0.406869 0.369761 0.929127 77.0689 84.614)" fill="#3D3D3C"/>
<path d="M68.8628 74.5609C68.8719 75.4325 69.0569 76.292 69.4053 77.0819C71.0153 78.4369 78.1758 77.1169 79.0912 76.1747C79.2298 75.0393 79.2417 73.8906 79.1268 72.7522L69.9177 73.9291" fill="white"/>
</g>
</g>
<path d="M84.6962 24.5275L85.8119 20.8563C74.0391 9.8254 47.4659 18.3658 44.4403 43.9854C41.4146 69.605 19.549 59.642 27.2863 77.08C35.0235 94.518 17.5062 103.103 17.5062 103.103C17.5062 103.103 59.2386 116.222 74.7117 111.952C70.2431 107.948 67.3626 102.311 66.6428 96.1622C65.5495 83.4195 75.4133 71.5144 68.6561 54.6624C59.2386 31.1773 82.7841 30.8211 82.7841 30.8211C82.7841 30.8211 82.9833 46.8185 97.4568 50.2046C97.9979 50.3316 98.5142 50.48 99.0965 50.5694" fill="#50C2CF"/>
<path d="M131.442 141.054C133.694 170.535 136.768 210.165 137.257 213.267C138.042 218.25 110.956 269.246 110.956 269.246C114.489 284.696 131.807 297.832 131.807 297.832C131.807 297.832 173.764 229.88 174.942 212.438C176.119 194.996 157.859 98.0802 127.241 109.293" fill="#DF519B"/>
<path d="M36.7747 120.658C7.4095 124.076 7.49933 163.305 10.6407 236.395C10.6407 236.395 6.70786 256.413 35.429 268.138C45.9177 268.138 42.6531 234.445 42.6531 234.445C42.6531 234.445 40.7762 219.494 39.5557 218.248C38.597 217.269 41.3528 183.72 42.5775 169.395" fill="#DF519B"/>
<mask id="mask5_102_3" style="mask-type:alpha" maskUnits="userSpaceOnUse" x="9" y="120" width="35" height="149">
<path fill-rule="evenodd" clip-rule="evenodd" d="M36.7747 120.658C7.4095 124.076 7.49933 163.305 10.6407 236.395C10.6407 236.395 6.70786 256.413 35.429 268.138C45.9177 268.138 42.6531 234.445 42.6531 234.445C42.6531 234.445 40.7762 219.494 39.5557 218.248C38.597 217.269 41.3528 183.72 42.5775 169.395" fill="white"/>
</mask>
<g mask="url(#mask5_102_3)">
<path d="M-6.78027 122.276C23.7184 151.555 -11.8011 173.746 -11.1478 126.262Z" fill="#DF519B"/>
<path d="M-7.68217 118.302C21.4785 74.5906 33.3461 115.673 -5.19873 123.135Z" fill="#DF519B"/>
<path d="M-6.52852 119.908C35.6569 109.703 18.933 154.444 -7.86115 126.144Z" fill="#DF519B"/>
</g>
</g>
</svg>
