<svg width="147" height="147" viewBox="0 0 147 147" fill="none" xmlns="http://www.w3.org/2000/svg">
<circle cx="73.1883" cy="73.9394" r="73.0588" fill="#719BFB"/>
<mask id="mask0_102_2" style="mask-type:alpha" maskUnits="userSpaceOnUse" x="0" y="0" width="147" height="147">
<circle cx="73.1883" cy="73.9394" r="73.0588" fill="white"/>
</mask>
<g mask="url(#mask0_102_2)">
<path d="M98.93 97.4996L63.9008 153.554L39.2207 118.589L69.4567 78.5745L98.93 97.4996Z" fill="#F4BCB1"/>
<mask id="mask1_102_2" style="mask-type:alpha" maskUnits="userSpaceOnUse" x="39" y="78" width="60" height="76">
<path fill-rule="evenodd" clip-rule="evenodd" d="M98.93 97.4996L63.9008 153.554L39.2207 118.589L69.4567 78.5745L98.93 97.4996Z" fill="white"/>
</mask>
<g mask="url(#mask1_102_2)">
<path d="M73.4329 82.4084C93.133 94.3916 75.4385 116.78 82.0961 127.714C88.7537 138.648 98.6645 94.8248 98.6645 94.8248L81.11 87.4996" fill="#EA978C"/>
</g>
<path d="M83.9341 78.5753C141.136 75.0844 130.663 23.2532 111.595 33.4599C102.362 38.8501 92.4178 42.9181 82.054 45.5449L83.9341 78.5753Z" fill="#013344"/>
<path d="M78.6187 95.8571C126.598 138.588 123 57.0319 109.431 47.5697C95.465 37.831 62.4504 76.6903 62.4504 76.6903" fill="#F4BCB1"/>
<path d="M56.3991 95.8544C56.3991 95.8544 83.6659 71.3245 84.2031 65.1477C84.2031 65.1477 112.938 62.7308 111.595 33.4584C66.48 13.5866 36.1171 19.6913 30.4775 66.4197C32.8281 67.3289 35.4452 67.2578 37.7429 66.2221C35.5949 82.6052 53.4454 83.2322 56.3991 95.8544Z" fill="#013344"/>
<path d="M84.1918 70.3998C62.4504 51.2984 48.0571 75.5462 71.132 87.5016L84.1918 70.3998Z" fill="#F4BCB1"/>
<path d="M51.2482 98.9944C69.9371 101.33 70.0904 135.063 70.0904 135.063L37.2516 201.818C37.2516 201.818 9.02985 279.488 -3.89246 281.103C-69.134 274.063 -112.429 202.55 -112.429 202.55C-112.429 202.55 -5.81616 96.3025 51.2482 98.9944Z" fill="#FCDD55"/>
<mask id="mask2_102_2" style="mask-type:alpha" maskUnits="userSpaceOnUse" x="-113" y="98" width="184" height="184">
<path fill-rule="evenodd" clip-rule="evenodd" d="M51.2482 98.9944C69.9371 101.33 70.0903 135.063 70.0903 135.063L37.2515 201.818C37.2515 201.818 9.02982 279.488 -3.89249 281.103C-69.134 274.063 -112.429 202.55 -112.429 202.55C-112.429 202.55 -5.81619 96.3025 51.2482 98.9944Z" fill="white"/>
</mask>
<g mask="url(#mask2_102_2)">
</g>
<path d="M16.172 146.838L35.1047 235.778C35.753 239.374 37.1213 242.802 39.1275 245.855L88.3751 320.819C103.678 318.577 112.236 286.096 112.236 286.096L88.1609 223.582L68.5701 121.654" fill="#FCDD55"/>
<path d="M108.8 74.7734C107.495 75.2222 106.068 74.569 105.555 73.2885L103.549 69.1864C103.211 68.6253 103.113 67.952 103.277 67.3178C103.44 66.6837 103.852 66.1418 104.419 65.8139C105.723 65.3649 107.15 66.0179 107.663 67.2984L109.669 71.4005C110.007 71.9617 110.105 72.6351 109.942 73.2693C109.778 73.9036 109.367 74.4455 108.8 74.7734Z" fill="#3D3D3C"/>
<path d="M102.378 55.9659C93.6074 59.565 93.3926 63.9003 99.0269 61.9969C104.661 60.0935 108.11 53.6143 102.378 55.9659Z" fill="#3D3D3C"/>
<path d="M112.371 63.8457C125.187 69.5837 123.553 76.2365 116.255 78.505L112.371 63.8457Z" fill="#F4BCB1"/>
<ellipse opacity="0.27" cx="92.5556" cy="79.2301" rx="8.0246" ry="3.82335" fill="#EA978C"/>
<path d="M102.566 81.7957C104.802 83.2138 107.474 83.7762 110.091 83.3791" stroke="#EA978C" stroke-width="4.95868" stroke-linecap="round" stroke-linejoin="round"/>
</g>
</svg>
