<svg width="639" height="639" viewBox="0 0 639 639" fill="none" xmlns="http://www.w3.org/2000/svg">
<circle cx="319.5" cy="319.5" r="319.5" fill="#FFEDEF"/>
<mask id="mask0_65_1560" style="mask-type:alpha" maskUnits="userSpaceOnUse" x="0" y="0" width="639" height="639">
<circle cx="319.5" cy="319.5" r="319.5" fill="#FFEDEF"/>
</mask>
<g mask="url(#mask0_65_1560)">
<g clip-path="url(#clip0_65_1560)">
<path d="M410.305 609.574C386.091 575.942 367.145 510.921 364.903 478.411L249.715 428.803L201.79 609.574H410.305Z" fill="#AC6651" stroke="black" stroke-width="6.72632"/>
<mask id="mask1_65_1560" style="mask-type:alpha" maskUnits="userSpaceOnUse" x="201" y="428" width="210" height="199">
<path d="M410.305 626.389C386.091 592.758 367.145 510.921 364.903 478.411L249.715 428.803L201.79 626.389H410.305Z" fill="#AC6651"/>
</mask>
<g mask="url(#mask1_65_1560)">
<g style="mix-blend-mode:multiply">
<ellipse cx="359.858" cy="425.44" rx="99.2132" ry="90.8053" fill="black"/>
</g>
</g>
<mask id="path-6-inside-1_65_1560" fill="white">
<path fill-rule="evenodd" clip-rule="evenodd" d="M460.563 326.091C460.517 325.895 460.471 325.7 460.424 325.504C460.377 325.308 460.33 325.113 460.282 324.917L432.712 209.849C432.685 209.731 432.657 209.614 432.629 209.496C432.6 209.379 432.572 209.261 432.544 209.144L432.424 208.644L432.421 208.645C415.239 138.952 344.988 96.0994 275.078 112.849C205.168 129.599 161.964 199.635 178.229 269.547L178.226 269.548L178.431 270.4L206.798 388.802L206.822 388.796C224.651 457.58 294.382 499.681 363.777 483.055C433.172 466.428 476.252 397.299 460.975 327.903L460.996 327.898L460.563 326.091Z"/>
</mask>
<path fill-rule="evenodd" clip-rule="evenodd" d="M460.563 326.091C460.517 325.895 460.471 325.7 460.424 325.504C460.377 325.308 460.33 325.113 460.282 324.917L432.712 209.849C432.685 209.731 432.657 209.614 432.629 209.496C432.6 209.379 432.572 209.261 432.544 209.144L432.424 208.644L432.421 208.645C415.239 138.952 344.988 96.0994 275.078 112.849C205.168 129.599 161.964 199.635 178.229 269.547L178.226 269.548L178.431 270.4L206.798 388.802L206.822 388.796C224.651 457.58 294.382 499.681 363.777 483.055C433.172 466.428 476.252 397.299 460.975 327.903L460.996 327.898L460.563 326.091Z" fill="#AC6651"/>
<path d="M460.563 326.091L454.015 327.629L454.018 327.644L454.022 327.658L460.563 326.091ZM460.424 325.504L453.883 327.071L453.883 327.071L460.424 325.504ZM460.282 324.917L453.741 326.485L453.744 326.5L453.748 326.514L460.282 324.917ZM432.712 209.849L426.167 211.399L426.169 211.408L426.171 211.416L432.712 209.849ZM432.629 209.496L439.17 207.929L439.17 207.929L432.629 209.496ZM432.544 209.144L426.002 210.711L426.004 210.72L426.006 210.728L432.544 209.144ZM432.424 208.644L438.965 207.077L437.397 200.532L430.853 202.104L432.424 208.644ZM432.421 208.645L425.891 210.255L427.491 216.746L433.992 215.185L432.421 208.645ZM275.078 112.849L273.511 106.308L275.078 112.849ZM178.229 269.547L179.792 276.089L186.296 274.535L184.781 268.023L178.229 269.547ZM178.226 269.548L176.663 263.005L170.113 264.57L171.686 271.118L178.226 269.548ZM178.431 270.4L184.972 268.833L184.971 268.829L178.431 270.4ZM206.798 388.802L200.257 390.369L201.825 396.911L208.367 395.342L206.798 388.802ZM206.822 388.796L213.333 387.108L211.676 380.715L205.253 382.255L206.822 388.796ZM363.777 483.055L362.21 476.513H362.21L363.777 483.055ZM460.975 327.903L459.407 321.362L452.987 322.901L454.406 329.349L460.975 327.903ZM460.996 327.898L462.564 334.439L469.104 332.871L467.537 326.331L460.996 327.898ZM467.111 324.553C467.063 324.348 467.014 324.142 466.965 323.937L453.883 327.071C453.927 327.257 453.971 327.443 454.015 327.629L467.111 324.553ZM466.965 323.937C466.916 323.731 466.866 323.526 466.816 323.321L453.748 326.514C453.793 326.7 453.838 326.885 453.883 327.071L466.965 323.937ZM426.171 211.416L453.741 326.485L466.823 323.35L439.254 208.282L426.171 211.416ZM439.258 208.299C439.229 208.176 439.199 208.053 439.17 207.929L426.087 211.064C426.114 211.175 426.141 211.287 426.167 211.399L439.258 208.299ZM439.17 207.929C439.14 207.805 439.11 207.682 439.081 207.56L426.006 210.728C426.034 210.841 426.061 210.953 426.087 211.064L439.17 207.929ZM425.883 210.211L426.002 210.711L439.085 207.577L438.965 207.077L425.883 210.211ZM433.992 215.185L433.994 215.184L430.853 202.104L430.851 202.104L433.992 215.185ZM438.952 207.035C420.885 133.754 347.019 88.6961 273.511 106.308L276.645 119.391C342.957 103.503 409.593 144.15 425.891 210.255L438.952 207.035ZM273.511 106.308C200.002 123.92 154.575 197.56 171.678 271.071L184.781 268.023C169.353 201.709 210.333 135.278 276.645 119.391L273.511 106.308ZM179.789 276.09L179.792 276.089L176.666 263.005L176.663 263.005L179.789 276.09ZM184.971 268.829L184.767 267.977L171.686 271.118L171.891 271.971L184.971 268.829ZM213.34 387.234L184.972 268.833L171.89 271.967L200.257 390.369L213.34 387.234ZM205.253 382.255L205.23 382.261L208.367 395.342L208.39 395.337L205.253 382.255ZM200.311 390.484C219.058 462.811 292.377 507.078 365.344 489.596L362.21 476.513C296.387 492.284 230.244 452.35 213.333 387.108L200.311 390.484ZM365.344 489.596C438.311 472.113 483.608 399.427 467.544 326.457L454.406 329.349C468.897 395.171 428.032 460.743 362.21 476.513L365.344 489.596ZM459.428 321.357L459.407 321.362L462.543 334.444L462.564 334.439L459.428 321.357ZM454.022 327.658L454.455 329.465L467.537 326.331L467.104 324.524L454.022 327.658Z" fill="black" mask="url(#path-6-inside-1_65_1560)"/>
</g>
<path opacity="0.35" d="M415.326 181.904C401.873 171.142 378.612 170.134 369.083 170.974L355.63 126.413C378.499 131.794 409.44 166.77 415.326 181.904Z" fill="#717376"/>
<path d="M243.48 71.9105C243.48 71.9105 253.128 65.2487 293.85 54.9894C334.572 44.73 349.419 48.7378 349.419 48.7378L369.242 171.21C369.242 171.21 355.724 170.919 322.104 178.262C288.483 185.605 272.392 194.516 272.392 194.516L243.48 71.9105Z" fill="#171921"/>
<path d="M181.587 197.88C170.152 127.926 220.823 83.252 243.805 70.9204L272.392 194.516C240.105 127.926 196.16 169.012 181.587 197.88Z" fill="#171921"/>
<path opacity="0.35" d="M212.696 271.868C200.588 226.129 249.69 201.521 272.392 194.515C260.621 167.049 233.715 142.386 200.925 172.656C170.656 223.943 182.427 263.461 191.676 293.729L212.696 271.868Z" fill="#717376"/>
<path d="M303.456 396.669L306.382 395.01L303.456 396.669C307.159 403.201 312.113 408.939 318.034 413.556C323.954 418.173 330.726 421.578 337.963 423.578C345.2 425.578 352.76 426.133 360.212 425.211C367.663 424.289 374.86 421.908 381.391 418.205C387.922 414.502 393.66 409.548 398.278 403.628C402.895 397.707 406.3 390.935 408.3 383.698C410.092 377.213 410.724 370.469 410.172 363.776C409.886 360.299 406.331 358.363 403.319 359.55C396.208 362.352 372.684 371.264 356.096 373.546C337.897 376.049 310.337 373.009 302.359 372.018C299.115 371.615 296.223 374.403 296.783 377.792C297.879 384.422 300.136 390.813 303.456 396.669Z" fill="black" stroke="black" stroke-width="6.72632"/>
<mask id="mask2_65_1560" style="mask-type:alpha" maskUnits="userSpaceOnUse" x="299" y="361" width="109" height="62">
<path d="M406.595 361.863C407.463 368.876 406.94 375.991 405.058 382.802C403.176 389.613 399.971 395.987 395.625 401.56C391.28 407.132 385.879 411.794 379.732 415.279C373.585 418.765 366.812 421.005 359.799 421.873C352.786 422.741 345.67 422.218 338.859 420.336C332.048 418.454 325.674 415.249 320.102 410.903C314.529 406.558 309.867 401.158 306.382 395.01C302.896 388.863 300.656 382.09 299.788 375.077L406.595 361.863Z" fill="#171921"/>
</mask>
<g mask="url(#mask2_65_1560)">
<circle cx="360.736" cy="429.331" r="36.1539" transform="rotate(-7.05286 360.736 429.331)" fill="#FC909F"/>
</g>
<path d="M368.266 222.329C377.795 217.845 400.216 213.753 413.668 233.26" stroke="black" stroke-width="6.72632" stroke-linecap="round"/>
<path d="M241.44 264.885C244.922 254.945 257.721 236.087 281.062 240.168" stroke="black" stroke-width="6.72632" stroke-linecap="round"/>
<path fill-rule="evenodd" clip-rule="evenodd" d="M264.774 290.677C264.966 292.044 266.703 292.349 267.67 291.363C271.815 287.132 278.188 284.024 285.585 283.145C289.949 282.626 294.147 282.945 297.887 283.939C299.155 284.275 300.401 283.205 299.959 281.97C297.158 274.159 289.254 269.024 280.663 270.045C270.672 271.232 263.536 280.293 264.723 290.284C264.738 290.415 264.755 290.546 264.774 290.677Z" fill="black"/>
<path fill-rule="evenodd" clip-rule="evenodd" d="M372.56 273.861C372.75 275.229 374.487 275.534 375.455 274.549C379.562 270.369 385.866 267.299 393.182 266.43C397.494 265.918 401.644 266.231 405.343 267.209C406.611 267.545 407.857 266.474 407.412 265.24C404.63 257.516 396.807 252.442 388.305 253.452C378.408 254.628 371.338 263.605 372.514 273.503C372.528 273.623 372.543 273.742 372.56 273.861Z" fill="#171921"/>
<path d="M336.783 300.88C345.561 297.54 360.869 298.549 359.927 315.531C359.089 330.625 343.604 333.622 338.67 330.103" stroke="black" stroke-width="6.72632"/>
<path d="M209.357 302.98C205.439 301.69 201.209 301.003 196.879 301.003C179.234 301.003 164.93 311.933 166.611 332.112C168.363 353.132 180.916 360.699 198.561 360.699C200.524 360.699 202.446 360.527 204.312 360.196C206.348 359.836 208.316 359.288 210.198 358.571" stroke="#171921" stroke-width="13.4526"/>
<path d="M211.038 358.237C207.205 359.822 202.988 360.699 198.561 360.699C180.916 360.699 168.363 353.132 166.611 332.112C164.93 311.933 179.234 301.003 196.879 301.003C202.155 301.003 207.283 302.023 211.879 303.911L211.038 358.237Z" fill="#AC6651"/>
<path d="M204.312 315.297C197.586 312.214 182.788 310.589 177.407 328.75" stroke="#171921" stroke-width="6.72632"/>
<path d="M186.655 316.137C190.299 319.22 197.249 328.749 195.904 342.202" stroke="#171921" stroke-width="6.72632"/>
<path d="M319.115 604.658C319.115 604.659 319.115 604.659 321.181 602.005L319.115 604.659L322.01 606.913L324.004 603.834L324.005 603.833L324.008 603.828L324.023 603.804L324.092 603.699C324.155 603.604 324.25 603.46 324.376 603.271C324.629 602.893 325.008 602.333 325.502 601.618C326.492 600.188 327.946 598.14 329.788 595.693C333.477 590.792 338.697 584.318 344.844 577.989C351.007 571.644 358.004 565.545 365.235 561.3C372.493 557.039 379.661 554.836 386.314 555.732C457.678 565.355 510.194 596.964 544.283 644.046H84.7086C112.118 594.705 151.103 563.3 214.308 548.889C217.002 548.275 220.664 548.461 225.243 549.526C229.774 550.58 234.941 552.431 240.513 554.881C251.656 559.779 264.096 566.921 275.786 574.32C287.458 581.708 298.296 589.297 306.222 595.043C310.183 597.915 313.411 600.323 315.648 602.011C316.766 602.856 317.635 603.52 318.224 603.972C318.519 604.198 318.743 604.37 318.893 604.486L319.061 604.617L319.102 604.649L319.112 604.657L319.115 604.658Z" fill="#9287FF" stroke="black" stroke-width="6.72632"/>
<path d="M194.412 553.383L203.1 521.043C203.452 519.734 205.146 519.363 206.061 520.364C231.055 547.714 262.595 546.642 273.063 545.387C274.484 545.217 275.597 546.772 274.93 548.038L252.805 589.998C252.466 590.641 251.772 590.995 251.06 590.847C244.42 589.464 211.336 581.377 194.607 554.698C194.362 554.308 194.292 553.828 194.412 553.383Z" fill="#E0DDFF" stroke="black" stroke-width="6.72632"/>
<path d="M413.996 553.209L394.522 520.448C393.861 519.336 392.232 519.354 391.527 520.439C381.88 535.297 365.241 542.142 359.423 544.164C358.377 544.528 357.898 545.772 358.462 546.725L381.168 585.09C381.506 585.662 382.147 585.973 382.786 585.791C386.376 584.768 398.694 579.616 413.974 554.958C414.302 554.428 414.314 553.745 413.996 553.209Z" fill="#E0DDFF" stroke="black" stroke-width="6.72632"/>
<path d="M290.072 582.668L274.938 546.514L263.167 571.738L290.072 582.668Z" fill="black" stroke="black" stroke-width="6.72632" stroke-linejoin="round"/>
<path d="M343.042 580.987L358.176 544.833L369.947 570.056L343.042 580.987Z" fill="black" stroke="black" stroke-width="6.72632" stroke-linejoin="round"/>
<path d="M224.491 514.564L204.312 519.609L221.127 530.539L224.491 514.564Z" fill="black" stroke="black" stroke-width="6.72632" stroke-linejoin="round"/>
<path d="M374.992 514.564L393.489 519.609L381.718 530.539L374.992 514.564Z" fill="black" stroke="black" stroke-width="6.72632" stroke-linejoin="round"/>
</g>
<defs>
<clipPath id="clip0_65_1560">
<rect width="336.316" height="538.105" fill="white" transform="translate(151.342 72.3086)"/>
</clipPath>
</defs>
</svg>
