<svg width="639" height="639" viewBox="0 0 639 639" fill="none" xmlns="http://www.w3.org/2000/svg">
<circle cx="319.5" cy="319.5" r="319.5" fill="#F9C9B6"/>
<mask id="mask0_65_1546" style="mask-type:alpha" maskUnits="userSpaceOnUse" x="0" y="0" width="639" height="639">
<circle cx="319.5" cy="319.5" r="319.5" fill="#F9C9B6"/>
</mask>
<g mask="url(#mask0_65_1546)">
<g clip-path="url(#clip0_65_1546)">
<path d="M411.092 615.445C386.877 581.813 367.931 516.792 365.689 484.282L250.501 434.675L202.576 615.445H411.092Z" fill="#F9C9B6" stroke="black" stroke-width="6.72632"/>
<mask id="mask1_65_1546" style="mask-type:alpha" maskUnits="userSpaceOnUse" x="202" y="434" width="210" height="199">
<path d="M411.092 632.261C386.877 598.629 367.931 516.792 365.689 484.282L250.501 434.675L202.576 632.261H411.092Z" fill="#F9C9B6"/>
</mask>
<g mask="url(#mask1_65_1546)">
<g style="mix-blend-mode:multiply">
<ellipse cx="360.645" cy="431.311" rx="99.2132" ry="90.8053" fill="black"/>
</g>
</g>
<mask id="path-6-inside-1_65_1546" fill="white">
<path fill-rule="evenodd" clip-rule="evenodd" d="M461.348 331.956C461.303 331.762 461.257 331.569 461.21 331.375C461.164 331.182 461.117 330.988 461.07 330.795L433.497 215.71C433.47 215.596 433.442 215.482 433.415 215.368C433.388 215.253 433.36 215.139 433.333 215.025L433.21 214.515L433.208 214.516C416.025 144.823 345.775 101.971 275.864 118.721C205.954 135.47 162.75 205.506 179.016 275.418L179.013 275.419L179.217 276.271L207.585 394.673L207.608 394.667C225.438 463.452 295.168 505.552 364.563 488.926C433.958 472.299 477.039 403.17 461.762 333.774L461.783 333.769L461.348 331.956Z"/>
</mask>
<path fill-rule="evenodd" clip-rule="evenodd" d="M461.348 331.956C461.303 331.762 461.257 331.569 461.21 331.375C461.164 331.182 461.117 330.988 461.07 330.795L433.497 215.71C433.47 215.596 433.442 215.482 433.415 215.368C433.388 215.253 433.36 215.139 433.333 215.025L433.21 214.515L433.208 214.516C416.025 144.823 345.775 101.971 275.864 118.721C205.954 135.47 162.75 205.506 179.016 275.418L179.013 275.419L179.217 276.271L207.585 394.673L207.608 394.667C225.438 463.452 295.168 505.552 364.563 488.926C433.958 472.299 477.039 403.17 461.762 333.774L461.783 333.769L461.348 331.956Z" fill="#F9C9B6"/>
<path d="M461.348 331.956L454.8 333.494L454.803 333.509L454.807 333.523L461.348 331.956ZM461.07 330.795L454.529 332.362L454.532 332.377L454.536 332.391L461.07 330.795ZM433.497 215.71L426.951 217.26L426.953 217.269L426.955 217.277L433.497 215.71ZM433.333 215.025L426.791 216.592L426.793 216.601L426.795 216.609L433.333 215.025ZM433.21 214.515L439.752 212.948L438.183 206.403L431.639 207.975L433.21 214.515ZM433.208 214.516L426.677 216.126L428.278 222.618L434.779 221.056L433.208 214.516ZM275.864 118.721L277.432 125.262L275.864 118.721ZM179.016 275.418L180.58 281.96L187.082 280.406L185.567 273.894L179.016 275.418ZM179.013 275.419L177.449 268.877L170.9 270.442L172.472 276.99L179.013 275.419ZM179.217 276.271L185.759 274.704L185.758 274.7L179.217 276.271ZM207.585 394.673L201.044 396.24L202.611 402.783L209.154 401.214L207.585 394.673ZM207.608 394.667L214.119 392.979L212.462 386.586L206.04 388.126L207.608 394.667ZM364.563 488.926L366.13 495.467L364.563 488.926ZM461.762 333.774L460.191 327.234L453.774 328.775L455.193 335.22L461.762 333.774ZM461.783 333.769L463.353 340.31L469.89 338.74L468.324 332.202L461.783 333.769ZM467.896 330.418C467.849 330.215 467.8 330.012 467.751 329.808L454.669 332.943C454.713 333.126 454.757 333.31 454.8 333.494L467.896 330.418ZM467.751 329.808C467.703 329.605 467.654 329.402 467.604 329.199L454.536 332.391C454.581 332.575 454.625 332.759 454.669 332.943L467.751 329.808ZM426.955 217.277L454.529 332.362L467.611 329.228L440.038 214.143L426.955 217.277ZM440.042 214.16C440.013 214.04 439.985 213.92 439.956 213.801L426.874 216.934C426.9 217.043 426.926 217.152 426.951 217.26L440.042 214.16ZM439.956 213.801C439.927 213.679 439.898 213.56 439.87 213.442L426.795 216.609C426.822 216.719 426.848 216.827 426.874 216.934L439.956 213.801ZM426.669 216.082L426.791 216.592L439.874 213.458L439.752 212.948L426.669 216.082ZM434.779 221.056L434.782 221.055L431.639 207.975L431.637 207.976L434.779 221.056ZM439.739 212.906C421.672 139.625 347.806 94.5674 274.297 112.179L277.432 125.262C343.744 109.374 410.379 150.021 426.677 216.126L439.739 212.906ZM274.297 112.179C200.789 129.791 155.362 203.431 172.465 276.942L185.567 273.894C170.139 207.581 211.119 141.15 277.432 125.262L274.297 112.179ZM180.576 281.961L180.58 281.96L177.452 268.876L177.449 268.877L180.576 281.961ZM185.758 274.7L185.553 273.848L172.472 276.99L172.677 277.842L185.758 274.7ZM214.126 393.106L185.759 274.704L172.676 277.838L201.044 396.24L214.126 393.106ZM206.04 388.126L206.016 388.132L209.154 401.214L209.177 401.208L206.04 388.126ZM201.097 396.355C219.845 468.682 293.163 512.949 366.13 495.467L362.996 482.385C297.173 498.155 231.031 458.221 214.119 392.979L201.097 396.355ZM366.13 495.467C439.098 477.985 484.395 405.298 468.331 332.328L455.193 335.22C469.683 401.042 428.819 466.614 362.996 482.385L366.13 495.467ZM460.212 327.229L460.191 327.234L463.332 340.315L463.353 340.31L460.212 327.229ZM454.807 333.523L455.241 335.337L468.324 332.202L467.889 330.389L454.807 333.523Z" fill="black" mask="url(#path-6-inside-1_65_1546)"/>
</g>
<path d="M364.277 439.727C382.5 436.429 393.177 416.291 389.463 395.774C385.75 375.257 368.694 360.139 350.47 363.437C332.247 366.735 321.571 386.872 325.284 407.389C328.997 427.906 346.054 443.025 364.277 439.727Z" fill="black" stroke="black" stroke-width="6.0388"/>
<mask id="mask2_65_1546" style="mask-type:alpha" maskUnits="userSpaceOnUse" x="327" y="366" width="61" height="72">
<ellipse cx="357.374" cy="401.582" rx="29.5917" ry="35.7454" transform="rotate(-10.2582 357.374 401.582)" fill="#171921"/>
</mask>
<g mask="url(#mask2_65_1546)">
<ellipse cx="362.856" cy="431.87" rx="33.9757" ry="30.7808" transform="rotate(-10.2582 362.856 431.87)" fill="#FC909F"/>
</g>
<circle cx="282.297" cy="273.288" r="20.1789" transform="rotate(-6.27568 282.297 273.288)" fill="#D2EFF3"/>
<ellipse cx="284.467" cy="288.697" rx="15.1342" ry="22.7013" transform="rotate(-6.77646 284.467 288.697)" fill="black"/>
<circle cx="389.547" cy="258.779" r="20.1789" transform="rotate(-6.27568 389.547 258.779)" fill="#D2EFF3"/>
<ellipse cx="392.088" cy="271.881" rx="15.1342" ry="22.7013" transform="rotate(-6.27568 392.088 271.881)" fill="black"/>
<circle cx="395.116" cy="273.242" r="43.7211" stroke="black" stroke-width="6.72632"/>
<circle cx="282.451" cy="288.377" r="43.7211" stroke="black" stroke-width="6.72632"/>
<path d="M353.077 285.013C353.077 281.446 351.66 278.024 349.137 275.501C346.614 272.978 343.192 271.561 339.624 271.561C336.057 271.561 332.635 272.978 330.112 275.501C327.589 278.024 326.172 281.446 326.172 285.013" stroke="black" stroke-width="6.72632"/>
<path d="M239.57 291.74L189.123 300.988" stroke="black" stroke-width="6.72632"/>
<path d="M369.052 228.201C378.581 223.717 401.002 219.625 414.455 239.131" stroke="black" stroke-width="6.72632" stroke-linecap="round"/>
<path d="M242.226 270.756C245.708 260.817 258.507 241.959 281.849 246.039" stroke="black" stroke-width="6.72632" stroke-linecap="round"/>
<path d="M246.422 260.56L236.083 251.435" stroke="black" stroke-width="6.72632" stroke-linecap="round"/>
<path d="M409.345 229.786L419.684 220.661" stroke="black" stroke-width="6.72632" stroke-linecap="round"/>
<path d="M257.266 251.07L250.462 239.076" stroke="black" stroke-width="6.72632" stroke-linecap="round"/>
<path d="M396.818 223.659L403.623 211.665" stroke="black" stroke-width="6.72632" stroke-linecap="round"/>
<path d="M270.847 244.993L267.146 231.709" stroke="black" stroke-width="6.72632" stroke-linecap="round"/>
<path d="M381.556 222.627L385.257 209.343" stroke="black" stroke-width="6.72632" stroke-linecap="round"/>
<path d="M278.183 207.199C276.861 204.27 276.86 204.271 276.859 204.271L276.855 204.273L276.842 204.279L276.8 204.298C276.765 204.314 276.714 204.337 276.649 204.368C276.518 204.428 276.33 204.516 276.087 204.633C275.6 204.865 274.896 205.208 274.003 205.66C272.219 206.565 269.683 207.909 266.639 209.68C260.557 213.217 252.417 218.478 244.2 225.371C227.86 239.077 210.697 259.681 209.664 286.412C209.219 297.913 207.781 353.474 208.102 374.706C208.373 392.586 217.626 411.783 230.461 429.485C241.644 444.908 255.768 459.5 269.766 471.523C206.26 474.034 158.149 465.702 125.636 456.58C108.681 451.823 95.9617 446.849 87.5087 443.081C84.1672 441.591 81.4923 440.29 79.4858 439.266C94.7787 428.026 107.537 408.757 115.955 380.159C125.187 348.796 129.28 305.966 125.688 249.479C122.434 198.296 147.308 155.053 184.894 124.482C222.518 93.8785 272.655 76.1897 319.214 76.1897C344.41 76.1897 364.85 81.1233 381.33 93.0907C397.815 105.063 410.743 124.369 420.319 153.914L420.983 155.965L423.133 156.128C443.944 157.705 458.579 166.284 469.369 180.029C480.275 193.922 487.376 213.256 492.582 236.48C496.012 251.781 492.672 266.881 488.656 284.268L488.469 285.078C484.538 302.091 480.165 321.018 482.089 343.148C483.821 363.065 491.77 382.613 498.377 397.645C499.226 399.576 500.048 401.423 500.832 403.183C503.144 408.376 505.121 412.816 506.455 416.443C507.35 418.874 507.866 420.711 508.031 422.015C508.115 422.682 508.085 423.028 508.062 423.172C507.314 423.863 505.929 424.628 503.716 425.304C501.413 426.008 498.514 426.525 495.181 426.851C488.521 427.5 480.479 427.349 472.753 426.606C465.013 425.861 457.777 424.539 452.706 422.927C450.133 422.109 448.352 421.289 447.348 420.577C447.195 420.468 447.077 420.376 446.987 420.3C447.614 418.136 448.518 415.553 449.562 412.57C454.934 397.226 464.015 371.285 458.142 337.119C454.629 316.677 445.251 280.579 436.797 249.728C432.562 234.272 428.545 220.086 425.587 209.763C424.108 204.602 422.894 200.406 422.049 197.5C421.896 196.973 421.755 196.489 421.626 196.049C421.401 195.275 421.215 194.638 421.072 194.148C420.959 193.764 420.874 193.471 420.816 193.274L420.75 193.05L420.733 192.994L420.729 192.979L420.728 192.976C420.728 192.975 420.728 192.974 417.645 193.881L420.728 192.974L419.166 187.662L415.329 191.653L415.328 191.654L415.322 191.66L415.289 191.694C415.258 191.726 415.21 191.775 415.145 191.842C415.013 191.975 414.812 192.177 414.543 192.443C414.004 192.976 413.19 193.765 412.112 194.772C409.954 196.786 406.737 199.672 402.53 203.121C394.114 210.022 381.752 219.169 366.012 228.114C336.05 245.14 293.955 261.375 243.557 260.119C259.724 245.101 269.026 232.757 274.356 223.815C277.328 218.83 279.062 214.906 280.062 212.174C280.562 210.808 280.877 209.741 281.072 208.989C281.169 208.613 281.237 208.317 281.281 208.101C281.304 207.993 281.321 207.906 281.333 207.839C281.339 207.805 281.344 207.777 281.348 207.754L281.353 207.723L281.355 207.71L281.356 207.705C281.356 207.702 281.357 207.7 278.183 207.199ZM278.183 207.199L276.861 204.27L282.284 201.824L281.357 207.7L278.183 207.199ZM446.729 420.035C446.733 420.035 446.753 420.057 446.777 420.102C446.737 420.057 446.725 420.035 446.729 420.035Z" fill="#D2EFF3" stroke="black" stroke-width="6.42672"/>
<path d="M421.182 155.532C422.022 163.099 420.677 178.233 418.659 188.322" stroke="black" stroke-width="6.72632"/>
<path d="M343.447 297.23C343.789 303.691 346.302 317.545 353.618 321.272C362.763 325.93 355.594 341.372 338.474 340.381" stroke="black" stroke-width="6.72632"/>
<path d="M220.175 370.961L221.073 369.993V368.673V312.339V310.456L219.469 309.472C213.191 305.619 205.555 303.511 197.666 303.511C188.181 303.511 179.302 306.45 172.976 312.415C166.581 318.448 163.13 327.267 164.046 338.263C164.939 348.977 168.536 356.863 174.502 362.103C174.012 363.783 173.867 365.594 174.094 367.501C174.749 372.997 177.527 376.957 181.821 379.397C185.914 381.723 191.152 382.545 196.731 382.545C205.945 382.545 214.024 377.589 220.175 370.961Z" stroke="black" stroke-width="6.72632"/>
<path fill-rule="evenodd" clip-rule="evenodd" d="M231.116 338.798C231.236 337.702 231.297 336.588 231.297 335.461C231.297 318.28 215.311 306.874 197.666 306.874C180.02 306.874 165.716 317.805 167.397 337.983C168.333 349.212 172.351 356.602 178.581 361.05C177.592 362.772 177.159 364.794 177.434 367.103C178.492 375.984 186.073 379.182 196.731 379.182C215.405 379.182 230.18 355.562 231.116 338.798Z" fill="#F9C9B6"/>
<path d="M205.098 321.168C198.372 318.086 183.574 316.46 178.193 334.621" stroke="black" stroke-width="6.72632"/>
<path d="M187.442 322.008C191.085 325.091 198.036 334.62 196.691 348.073" stroke="black" stroke-width="6.72632"/>
<circle cx="194.168" cy="369.093" r="6.72632" fill="white"/>
<circle cx="195.85" cy="367.411" r="1.68158" fill="#FFEDEF"/>
<path d="M544.552 649.686H85.6326C85.6906 649.568 85.749 649.449 85.8078 649.33C93.4502 633.765 107.55 605.051 125.9 579.36C136.315 564.779 147.976 551.355 160.438 541.912C172.902 532.469 185.863 527.23 199.031 528.382C224.346 530.597 246.894 544.457 269.531 558.373C271.676 559.691 273.821 561.01 275.97 562.32C300.328 577.163 325.34 590.946 352.85 584.915C362.156 582.874 368.428 578.508 372.376 572.867C376.267 567.306 377.665 560.843 377.907 554.936C378.15 549.02 377.243 543.429 376.301 539.364C375.861 537.463 375.407 535.87 375.045 534.702C381.14 528.566 387.594 524.993 394.258 523.384C401.479 521.64 409.202 522.144 417.325 524.547C433.686 529.386 451.192 541.786 468.277 557.731C499.578 586.945 528.298 626.918 544.552 649.686Z" fill="#9287FF" stroke="black" stroke-width="7.18758"/>
</g>
<defs>
<clipPath id="clip0_65_1546">
<rect width="336.316" height="538.105" fill="white" transform="translate(152.129 78.1798)"/>
</clipPath>
</defs>
</svg>
